<?xml version="1.0" encoding="iso-8859-1"?>
<!-- Uploaded to: SVG Repo, www.svgrepo.com, Generator: SVG Repo Mixer Tools -->
<svg height="800px" width="800px" version="1.1" id="Layer_1" xmlns="http://www.w3.org/2000/svg" xmlns:xlink="http://www.w3.org/1999/xlink" 
	 viewBox="0 0 512 512" xml:space="preserve">
<path style="fill:#EC5565;" d="M0,256.006C0,397.402,114.606,512.004,255.996,512C397.394,512.004,512,397.402,512,256.006
	C512.009,114.61,397.394,0,255.996,0C114.606,0,0,114.614,0,256.006z"/>
<path style="fill:#D94453;" d="M512,256.006c0-0.433-0.014-0.864-0.016-1.297c-0.021-4.329-119.126-118.002-119.606-118.5
	c-6.787-7.766-16.326-12.892-27.295-14.231c-17.558-2.173-33.939,5.946-42.736,21.138l-5.553,9.588
	c-1.857,3.207-0.951,7.124,1.819,9.405c0.388,0.566,76.44,76.543,76.56,76.692c-34.521-7.733-70.141-6.577-104.343,3.329
	c-0.099-0.097-0.202-0.191-0.301-0.287c-31.401-31.456-107.178-107.19-107.685-107.654c-9.219-9.278-22.13-13.895-35.818-12.211
	c-17.471,2.133-31.335,13.857-36.185,30.592L77.149,268.901c-0.331,1.142-0.308,2.276-0.111,3.373
	c-0.188,2.19-0.23,4.412-0.005,6.672l3.741,37.534c1.889,18.941,9.762,35.952,21.405,48.866
	c0.453,0.529,145.38,144.772,146.941,146.56c2.286,0.06,4.578,0.094,6.878,0.094C397.394,512.004,512,397.402,512,256.006z"/>
<path style="fill:#F4F6F9;" d="M434.851,268.858L401.17,152.561c-4.848-16.73-18.708-28.451-36.174-30.583
	c-17.553-2.172-33.929,5.945-42.723,21.132l-5.551,9.586c-2.066,3.568-0.849,8.131,2.719,10.198
	c3.572,2.066,8.135,0.849,10.198-2.719l5.551-9.582c6.863-11.853,18.927-14.937,27.996-13.795
	c8.959,1.093,19.875,6.899,23.647,19.919l25.051,86.497c-41.443-12.891-85.17-12.795-126.561,0.389h-0.003
	c-14,4.461-23.037,19.046-21.684,34.797h-15.268c1.353-15.75-7.685-30.336-21.689-34.797c-41.391-13.184-85.118-13.28-126.561-0.389
	l25.051-86.497c3.773-13.019,14.688-18.826,23.647-19.919c9.072-1.116,21.132,1.95,27.996,13.792l5.551,9.586
	c2.06,3.568,6.629,4.785,10.198,2.719s4.785-6.629,2.719-10.198l-5.551-9.589c-8.795-15.181-25.164-23.29-42.723-21.129
	c-17.466,2.132-31.327,13.854-36.174,30.583L77.149,268.858c-0.331,1.141-0.308,2.276-0.112,3.372
	c-0.188,2.189-0.23,4.411-0.005,6.67l3.74,37.522c3.627,36.367,28.99,66.003,61.683,72.079c6.717,1.247,13.474,1.87,20.239,1.87
	c6.761,0,13.525-0.623,20.239-1.87c32.693-6.076,58.058-35.711,61.683-72.079l2.302-23.093h18.162l2.302,23.093
	c3.627,36.367,28.99,66.003,61.683,72.079c6.717,1.247,13.474,1.87,20.239,1.87c6.761,0,13.525-0.623,20.239-1.87
	c32.693-6.076,58.058-35.711,61.683-72.079l3.74-37.522c0.225-2.259,0.183-4.481-0.005-6.67
	C435.159,271.134,435.182,269.999,434.851,268.858z M233.501,277.419l-3.74,37.522c-2.971,29.799-23.348,54.012-49.554,58.877
	c-11.619,2.165-23.407,2.165-35.026,0c-26.206-4.866-46.583-29.077-49.554-58.877l-3.74-37.522
	c-0.882-8.828,3.998-17.25,11.354-19.595h-0.003c38.905-12.381,80.02-12.381,118.91,0
	C229.503,260.169,234.383,268.592,233.501,277.419z M420.112,277.419l-3.74,37.522c-2.971,29.799-23.348,54.012-49.554,58.877
	c-11.619,2.165-23.407,2.165-35.026,0c-26.206-4.866-46.583-29.077-49.554-58.877l-3.74-37.522
	c-0.882-8.828,3.998-17.25,11.354-19.595h-0.003c38.905-12.381,80.02-12.381,118.91,0
	C416.114,260.169,420.994,268.592,420.112,277.419z"/>
</svg>