<?xml version="1.0" encoding="iso-8859-1"?>
<!-- Uploaded to: SVG Repo, www.svgrepo.com, Generator: SVG Repo Mixer Tools -->
<svg height="800px" width="800px" version="1.1" id="Layer_1" xmlns="http://www.w3.org/2000/svg" xmlns:xlink="http://www.w3.org/1999/xlink" 
	 viewBox="0 0 512.001 512.001" xml:space="preserve">
<path style="fill:#9ED368;" d="M0.001,256.006c0,141.395,114.606,255.998,255.996,255.994
	c141.398,0.004,256.004-114.598,256.004-255.994C512.009,114.61,397.395,0,255.996,0C114.606,0,0.001,114.614,0.001,256.006z"/>
<path style="fill:#8BC052;" d="M512.001,256.006c0-1.742-106.676-111.329-107.171-111.813c-5.95-6.461-13.538-10.571-21.887-11.259
	c-14.208-1.131-26.589,7.802-32.394,23.406l-4.426,11.889c-1.187,3.186,0.023,6.577,2.622,8.507
	c0.421,0.557,58.56,60.131,64.084,65.242l3.018,19.435c-3.186-1.004-6.633-1.644-10.461-1.644H308.32
	c-10.321,0-19.067,5.024-24.383,12.967c-0.911-0.895-130.291-129.727-130.8-130.206c-6.374-6.775-14.767-10.309-23.973-9.597
	c-16.221,1.338-29.689,15.425-33.556,35.335L77.605,284.215c-0.116,0.577-0.186,1.169-0.273,1.759l-0.39,2.516
	c-0.066,0.428,0.05,0.826,0.057,1.245c-0.025,0.551-0.144,1.065-0.144,1.625v56.285c0,9.541,3.639,17.759,9.508,23.453
	c0.464,0.518,0.967,0.981,1.465,1.465c0.465,0.521,132.862,132.322,133.164,132.357c1.612,1.759,3.202,3.532,4.799,5.3
	c9.909,1.165,19.985,1.781,30.207,1.781C397.395,512.004,512.001,397.402,512.001,256.006z"/>
<path style="fill:#F4F6F9;" d="M435.011,289.517c-0.003-0.363,0.106-0.704,0.049-1.072l-0.255-1.641
	c-0.156-1.559-0.385-3.058-0.7-4.501l-17.758-114.325c-3.817-19.623-17.28-33.707-33.495-35.044
	c-14.204-1.13-26.581,7.799-32.384,23.399l-4.425,11.886c-1.44,3.863,0.525,8.164,4.388,9.6c3.863,1.443,8.157-0.525,9.6-4.388
	l4.425-11.886c3.481-9.338,9.811-14.338,17.167-13.733c7.887,0.653,17.152,8.018,20.02,22.736l14.102,90.827
	c-3.185-1.004-6.629-1.644-10.458-1.644H308.25c-17.021,0-29.858,13.577-29.858,31.582v5.741h-44.786v-5.741
	c0-18.005-12.837-31.582-29.858-31.582h-97.295c-3.657,0-7.066,0.746-10.245,1.927l14.097-90.83
	c2.919-14.998,12.185-22.364,20.071-23.017c7.439-0.591,13.69,4.396,17.167,13.733l4.425,11.886c1.44,3.863,5.723,5.824,9.6,4.388
	c3.863-1.436,5.828-5.737,4.388-9.6l-4.425-11.886c-5.806-15.596-18.165-24.5-32.384-23.399
	c-16.215,1.338-29.679,15.421-33.547,35.325L77.605,284.171c-0.116,0.576-0.186,1.169-0.273,1.758l-0.39,2.516
	c-0.066,0.428,0.05,0.826,0.057,1.245c-0.025,0.551-0.144,1.063-0.144,1.623v56.268c0,18.005,12.724,31.582,29.599,31.582h97.296
	c17.021,0,29.858-13.577,29.858-31.582v-35.598h44.786v35.598c0,18.005,12.836,31.582,29.858,31.582h97.038
	c18.137,0,29.858-11.722,29.858-29.858v-57.991C435.147,290.684,435.034,290.13,435.011,289.517z M218.678,347.58
	c0,9.805-6.138,16.653-14.929,16.653h-97.296c-8.773,0-14.67-6.692-14.67-16.653v-56.268c0-0.777,0.099-1.495,0.169-2.231
	l0.396-2.549c1.603-7.238,6.838-11.873,14.106-11.873h97.296c8.791,0,14.929,6.848,14.929,16.653L218.678,347.58L218.678,347.58z
	 M420.218,349.305c0,9.906-5.023,14.929-14.929,14.929h-97.038c-8.791,0-14.929-6.848-14.929-16.653v-56.268
	c0-9.805,6.138-16.653,14.929-16.653h97.038c7.509,0,12.039,2.902,13.914,8.969l0.915,5.892c0.03,0.602,0.1,1.152,0.1,1.792V349.305
	z"/>
</svg>